# xmcd
#
# Track frame offsets:
#	150
#	14277
#	29797
#	43417
#	57315
#	71029
#	84896
#	99478
#	114812
#	128449
#	141475
#
# Disc length: 2074 seconds
# Revision: 0
# Processed by: cddbd v1.5.2PL0 Copyright (c) Steve Scherf et al.
# Submitted via: dBpowerAMP V12.0
#
DISCID=9508180b
DTITLE=John Travis - Dusty Road
DYEAR=2003
DGENRE=Country
TTITLE0=I'm A Texas Man
TTITLE1=If You Still Love Me
TTITLE2=Dusty Road
TTITLE3=One Time Lover
TTITLE4=Be True To Me
TTITLE5=It's Just About Love
TTITLE6=The Queen Of My Soul
TTITLE7=Stay With Me Tonight
TTITLE8=Barn Dance Jamboree
TTITLE9=Love Me (If You Want To Honey)
TTITLE10=Prairie Rider
EXTD=
EXTT0=
EXTT1=
EXTT2=
EXTT3=
EXTT4=
EXTT5=
EXTT6=
EXTT7=
EXTT8=
EXTT9=
EXTT10=
PLAYORDER=
